<?xml version="1.0" standalone="no"?>
<!DOCTYPE svg PUBLIC "-//W3C//DTD SVG 1.1//EN" "http://www.w3.org/Graphics/SVG/1.1/DTD/svg11.dtd" >
<svg xmlns="http://www.w3.org/2000/svg">
<metadata></metadata>
<defs>
<font id="hack__crahackcrafticonography" horiz-adv-x="1538" >
<font-face units-per-em="2048" ascent="1536" descent="-512" />
<missing-glyph horiz-adv-x="1024" />
<glyph horiz-adv-x="0" />
<glyph unicode="&#xd;" horiz-adv-x="1024" />
<glyph horiz-adv-x="0" />
<glyph horiz-adv-x="0" />
<glyph unicode=" "  horiz-adv-x="1024" />
<glyph unicode="&#x09;" horiz-adv-x="1024" />
<glyph unicode="&#xa0;" horiz-adv-x="1024" />
<glyph unicode="B" d="M0 768l768 770l770 -770l-770 -768zM616 743h84v-249h111v249h107v111h-107v53q0 12 7 20.5t13 8.5h87v108h-87q-55 0 -92 -40q-39 -43 -39 -99v-51h-84v-111z" />
<glyph unicode="C" d="M0 768l768 770l770 -770l-770 -768zM510 614l8 -4q72 -47 158 -47q63 0 127 27q49 23 92 69q35 41 55.5 93.5t20.5 105.5v12q14 10 26.5 23.5t22.5 30.5h-2v2q-6 -10 -18.5 -12.5t-24.5 -2.5h-6q27 16 39 54l2 4l-6 -2q-27 -18 -64 -25q-29 33 -76 33q-43 0 -73.5 -31 t-30.5 -74q0 -6 1 -11t1 -11q-59 4 -113.5 31.5t-93.5 74.5l-2 2v-2q-14 -23 -14 -53q0 -51 41 -82q-20 2 -39 12l-4 3v-5v-2q0 -35 21.5 -62.5t53.5 -37.5q-4 0 -9 -1t-9 -1t-9 1t-10 1l-4 2l2 -4q10 -31 35 -50.5t58 -21.5q-53 -41 -123 -41q-16 0 -23 2h-10z" />
<glyph unicode="D" d="M0 768l768 770l770 -770l-770 -768zM498 887q0 -45 24 -82q-2 -10 -3 -18.5t-1 -18.5q0 -102 74 -176q35 -35 80 -53.5t96 -18.5q10 0 21.5 1t21.5 3q39 -22 80 -22q61 0 104 44t43 105q0 47 -24 84q2 8 2 16.5v16.5q0 49 -18.5 94t-53.5 80t-81 53.5t-95 18.5h-19.5 t-19.5 -2q-36 24 -79 24h-3q-61 0 -105 -44t-44 -105zM621 688q8 23 28 23h4q16 0 26.5 -9.5t20.5 -19.5q4 -4 8.5 -8t8.5 -8q8 -4 24.5 -10.5t34.5 -6.5q31 0 49 21q14 16 9 28q-4 16 -28 24.5t-48 12.5q-55 6 -92 33q-43 29 -43 71v7q2 45 36 76q31 27 74 30q8 0 14.5 1 t12.5 1q72 0 121 -43q29 -27 20 -53q-6 -20 -29 -24h-2q-14 0 -34 20q-14 12 -32 23.5t-42 13.5h-2q-10 0 -20.5 -4t-20.5 -8q-14 -12 -19 -29q-4 -23 37 -33q8 -2 15.5 -4t15.5 -4q23 -4 45.5 -9.5t40.5 -15.5q45 -23 59 -59q6 -16 6 -31q0 -23 -14 -45q-14 -25 -47 -45 q-29 -16 -67 -20h-23q-49 0 -76.5 12t-50.5 35q-24 21 -24 41q0 8 4 16z" />
<glyph unicode="E" d="M0 772l768 766l770 -766l-770 -772zM469 510l88 53l-86 49zM481 631l86 -49l281 483l-88 51zM625 455l129 -74l14 27l-33 20l8 14l33 -20l17 27l-35 20l8 14l35 -20l14 26l-67 39l8 15l67 -39l17 26l-35 21l8 12l35 -18l14 26l-33 19l9 14l32 -18l17 26l-35 19l8 14 l35 -18l14 26l-67 39l8 15l68 -39l16 26l-35 19l8 14l35 -18l14 26l-32 19l8 14l33 -18l16 26l-35 19l8 14l35 -18l15 24l-68 39l8 14l68 -39l16 27l-35 21l8 14l35 -21l15 27l-33 21l8 14l33 -21l16 27l-35 20l9 15l34 -21l15 25l-129 74zM770 1133l88 -50l29 50l-88 49z " />
<glyph unicode="F" d="M0 772l768 766l770 -766l-770 -772zM336 696h123v45h225v170q23 4 36 22.5t13 41.5q0 29 -18.5 47t-46.5 18q-29 0 -47.5 -18t-18.5 -47q0 -23 13.5 -41.5t35.5 -22.5v-137h-192v45h-123v-123zM444 604q0 -29 18.5 -47t47.5 -18q23 0 40 13t23 36h138v-101h-45v-122h122 v122h-45v134h-170q-6 23 -23.5 36t-39.5 13q-29 0 -47.5 -18.5t-18.5 -47.5zM477 604q0 33 33 33t33 -33t-33 -33t-33 33zM635 975q0 33 33 33q32 0 32 -33t-32 -33q-33 0 -33 33zM698 397v58h58v-58h-58zM752 1081h45v-307h90v-168q-23 -6 -36 -23.5t-13 -39.5 q0 -29 18 -47.5t47 -18.5t47.5 18.5t18.5 47.5q0 23 -13.5 40t-35.5 23v168h137q4 -23 22 -36t41 -13q29 0 47.5 18.5t18.5 47.5t-18.5 47t-47.5 18q-23 0 -41 -13.5t-22 -35.5h-228v274h45v123h-122v-123zM1087 791q0 32 33 32t33 -32q0 -33 -33 -33t-33 33z" />
<glyph unicode="G" d="M0 772l768 766l770 -766l-770 -772zM334 877l420 -138l313 103v-224h18v230l84 29l-415 71zM508 694q51 -49 111.5 -75.5t124.5 -28.5h9l117 22q64 25 121 82v90l-241 -75l-242 75v-90zM1049 514h51l-15 84h-18z" />
<glyph unicode="H" d="M0 768l768 770l770 -770l-770 -768zM455 594h88v-111l131 111h403v432h-622v-432zM545 713v24h237v-24h-237zM545 795v24h428v-24h-428zM545 877v24h311v-24h-311z" />
<glyph unicode="I" d="M0 768l768 770l770 -770l-770 -768zM217 752h135v34h-135v-34zM586 457l6 6l239 268l113 342l2 8l-6 -6l-238 -268h-2v-2l-112 -340zM670 600l61 186l68 -38zM715 1206h2h24h2v2v60v4l52 -62q2 -2 3 -2t3 -2h6h14h2v2v111v2h-2h-24h-2v-2v-59v-7l-54 64q-2 0 -2 2h-2 l-2 2h-4h-14h-2v-2v-111v-2zM752 219h34v135h-34v-135zM1184 752h135v34h-135v-34z" />
<glyph unicode="J" d="M0 768l768 770l770 -770l-770 -768zM430 596l2 -2l31 -70h2l59 6q6 -4 15 -12l-7 -55v-2h3l69 -29h2l39 45h6q4 0 9.5 1t9.5 1l37 -43l2 -2l69 33l2 2l-8 57l12 13l58 -7h2v3l26 71h2l-2 2l-45 37v8v9l2 2l45 36h2l-2 2l-30 70v2h-2l-56 -6l-8 8l-8 8l8 58l-2 2l-69 30 h-3v-2l-38 -43h-13h-16l-39 45h-2l-70 -32v-2l6 -58q-12 -12 -18 -20l-49 6h-2v-2l-27 -72v-2l41 -33v-6q0 -12 2 -18l-45 -39h-2zM586 653q0 29 18 48.5t47 19.5t48.5 -19.5t19.5 -48.5t-19.5 -48t-48.5 -19t-47 19.5t-18 47.5zM782 895l23 -47v-2h2l41 6q6 -6 10 -8 l-4 -39l-2 -2h2l49 -21h2h2l25 33h4h14l25 -31h2h2l47 23h2v2l-6 41q6 2 8 8l41 -4h2l19 51v2l-31 25v6v6l33 27v2l-23 49h-2l-39 -4q-2 4 -10 12l6 39v2h-2l-49 23h-2v-2l-29 -31h-8h-10l-27 33h-2l-49 -23v-2l4 -41l-12 -12l-35 2h-2l-19 -51v-2l29 -23v-4v-12l-31 -27v-2 v-2zM891 938q0 20 13.5 33.5t33.5 13.5t33.5 -13.5t13.5 -33.5t-13.5 -33.5t-33.5 -13.5t-33.5 13.5t-13.5 33.5z" />
<glyph unicode="K" d="M0 772l768 766l770 -766l-770 -772zM645 944h21v-526v-8q8 -35 36.5 -57.5t65.5 -22.5q39 0 67.5 22.5t36.5 57.5v8v143h-104v33h104v39h-104v31h104v38h-104v33h104v209h21v51h-248v-51zM737 1186q0 -18 13.5 -31.5t31.5 -13.5q20 0 33.5 13t13.5 32q0 20 -13.5 33.5 t-33.5 13.5q-18 0 -31.5 -13.5t-13.5 -33.5zM752 848q0 14 9 22.5t21 8.5q33 0 33 -31q0 -12 -9.5 -21.5t-23.5 -9.5q-12 0 -21 9.5t-9 21.5zM788 1032q25 0 25 23q0 25 -25 24q-22 0 -22 -22q0 -25 22 -25zM811 915q0 16 16 17q16 0 17 -17q-1 -16 -17 -16t-16 16z M840 1104q0 -12 9 -21.5t21 -9.5q14 0 23.5 9.5t9.5 21.5q0 33 -33 33q-12 0 -21 -9.5t-9 -23.5z" />
<glyph unicode="P" d="M0 768l768 770l770 -770l-770 -768z" />
<glyph unicode="a" horiz-adv-x="11307" d="M0 0v1538h334v-602h624v602h332v-1538h-332v664h-624v-664h-334zM1434 354q0 186 135 277q139 92 407 100l209 6v51q0 180 -188 181q-147 0 -340 -86l-111 217q209 108 460 108h5q244 0 373 -104q131 -104 131 -316v-788h-231l-64 162h-10q-82 -102 -170 -144 q-92 -38 -225 -38h-7q-174 0 -274 98q-100 96 -100 276zM1774 352q0 -137 159 -137q113 0 185 66q67 64 67 170v98l-127 -4q-145 -6 -215 -51t-69 -142zM2632 586q0 301 153 461q155 159 441 159h4q207 0 381 -82l-99 -250q-41 16 -76.5 28.5t-70.5 23.5q-67 18 -135 18 q-260 0 -260 -356q0 -346 260 -346q94 0 178 24q84 25 164 78v-276q-84 -51 -164 -70q-84 -18 -207 -18q-569 0 -569 606zM3701 0v1634h332v-729l-17 -266h4l146 178l342 359h376l-485 -510l514 -666h-385l-352 475l-143 -108v-367h-332zM4913 418q0 289 352 481 q-176 197 -176 348q0 147 99 226q101 77 258 77h4q158 0 346 -82l-60 -155q-135 65 -287 65h-5q-156 0 -156 -123q0 -98 135 -251l297 -336l182 -207q141 205 162 477h184q-20 -365 -217 -623v-2l29 -31q29 -32 72 -80t95 -107.5t101 -114.5h-264q-31 37 -61.5 70.5t-53 59 t-37.5 40.5l-14 16q-190 -184 -483 -184q-211 0 -356 114q-145 117 -146 322zM5124 412q0 -111 88 -185q88 -73 219 -73q203 0 338 157l-395 445q-123 -49 -186 -142q-63 -90 -64 -202zM6386 768q0 236 90 420q92 178 258 276q170 96 395 97q229 0 465 -109l-109 -266 q-45 23 -89 39t-91 32q-90 31 -176 31q-188 0 -293 -137q-104 -139 -104 -387q0 -514 397 -514q86 0 185.5 20.5t220.5 61.5v-273q-195 -79 -431 -79h-6q-348 0 -528 202q-184 205 -184 586zM7692 0v1184h252l49 -199h17q59 98 155 160q94 61 211 61q35 0 62.5 -3t50.5 -7 l-25 -303q-23 6 -47 8t-53 2q-158 0 -248 -78q-90 -80 -90 -223v-602h-334zM8483 354q0 186 135 277q139 92 405 100l211 6v51q0 180 -188 181q-145 0 -342 -86l-109 217q209 108 458 108h5q242 0 375 -104q129 -104 129 -316v-788h-231l-64 162h-8q-82 -102 -172 -144 q-45 -18 -101.5 -28t-127.5 -10q-176 0 -275 98q-100 94 -100 276zM8821 352q0 -137 162 -137q113 0 182 66q69 64 69 170v98l-129 -4q-143 -6 -213 -51q-72 -47 -71 -142zM9626 934v153l180 87v63q0 268 178 375q160 94 414 94t561 -98v-424v-10h334v-240h-336l2 -449v-116 q0 -70 39 -103q39 -30 102 -30q86 0 207 36v-239q-125 -53 -301 -53q-195 0 -285 96q-90 100 -90 293v102v84v379h-500v-934h-325v934h-180zM10131 1174h500v219q-87 28 -227 28h-10q-78 0 -136.5 -16t-80.5 -39q-45 -49 -46 -168v-24z" />
<glyph unicode="b" d="M0 768l768 770l770 -770l-770 -768zM72 768l696 -696l698 696l-698 698zM618 745v107h84v53q0 57 38 97t91 40h84v-104h-84q-8 0 -15 -9t-7 -24v-53h106v-107h-106v-249h-107v249h-84z" />
<glyph unicode="c" d="M0 768l768 770l770 -770l-770 -768zM72 768l696 -696l698 696l-698 698zM518 612q8 -2 25 -2q72 0 129 45q-35 0 -60.5 19.5t-36.5 50.5q4 0 9.5 -1t9.5 -1q10 0 27 4q-35 8 -58.5 36t-23.5 64v2q20 -12 47 -12q-20 14 -32.5 35.5t-12.5 48.5q0 29 12 53q39 -47 93 -75.5 t120 -32.5q-4 16 -4 24q0 41 30.5 72t71.5 31q47 0 76 -33q35 6 66 25q-12 -39 -45 -58q16 4 32.5 4.5t26.5 12.5q-20 -29 -51 -54v-12q0 -51 -19.5 -103.5t-56.5 -94.5t-92.5 -68.5t-124.5 -26.5q-43 0 -83 12.5t-75 34.5z" />
<glyph unicode="d" d="M0 768l768 770l770 -770l-770 -768zM72 768l696 -696l698 696l-698 698zM500 887q0 59 43 103t104 44q23 0 43.5 -7t36.5 -17q10 2 20.5 2h20.5q51 0 95 -19.5t78 -52.5t53.5 -77t19.5 -95q0 -23 -2 -33q25 -37 24 -84q0 -61 -43 -104t-102 -43q-43 0 -78 22 q-10 -2 -22.5 -3t-22.5 -1q-51 0 -96 19.5t-79 53.5t-53.5 78t-19.5 95q0 10 1 19.5t3 19.5q-10 16 -17 36.5t-7 43.5zM619 683q-1 -5 -1 -9q0 -20 23 -43q27 -23 59 -35q27 -10 75 -10h16q29 2 55 14t44 32q20 20 26 44q2 9 2 18q0 16 -7 31q-20 49 -70 62.5t-104 27.5 q-27 6 -35 19.5t-1.5 25.5t22.5 22.5t39 10.5q20 0 36.5 -10.5t30 -20.5t23.5 -19t20 -7q18 2 27.5 25.5t-20.5 49.5q-27 23 -61 33q-24 7 -57 7q-13 0 -28 -1q-41 -4 -72.5 -29.5t-35.5 -74.5q-2 -25 9 -44.5t31.5 -32.5t45 -21.5t49.5 -10.5q16 -4 33.5 -9t29 -13 t14.5 -20.5t-12 -26.5q-12 -14 -28.5 -17.5t-32.5 -2.5t-29.5 6t-19.5 10q-12 8 -27.5 27.5t-38.5 17.5t-30 -26z" />
<glyph unicode="e" d="M0 772l768 766l770 -766l-770 -772zM74 772l694 -698l696 698l-696 692zM469 510l2 102l86 -49zM479 629l283 487l86 -49l-281 -487zM625 455l344 596l129 -74l-17 -27l-32 21l-9 -13l35 -20l-16 -29l-35 21l-6 -12l33 -21l-17 -29l-33 21l-8 -12l35 -21l-16 -27l-68 39 l-8 -14l68 -39l-17 -27l-33 19l-8 -12l35 -19l-16 -28l-35 18l-6 -12l32 -19l-16 -28l-33 18l-8 -12l35 -19l-16 -28l-68 39l-8 -13l67 -39l-16 -28l-33 18l-8 -12l35 -19l-17 -28l-34 20l-7 -14l33 -19l-16 -28l-33 20l-8 -12l35 -21l-17 -28l-67 39l-8 -13l67 -39l-16 -28 l-33 20l-8 -12l35 -20l-17 -29l-35 20l-6 -12l33 -20l-14 -27zM770 1133l29 49l88 -49l-29 -50z" />
<glyph unicode="f" d="M0 772l768 766l770 -766l-770 -772zM74 772l694 -698l696 698l-696 692zM338 698v119h119v-45h196v141q-23 4 -36 21.5t-13 40.5q0 27 18.5 45t45.5 18t45 -18.5t18 -44.5q0 -23 -13 -40t-36 -22v-170h-225v-45h-119zM446 604q0 27 18.5 45.5t45.5 18.5q23 0 40 -13.5 t21 -36.5h170v-133h45v-118h-118v118h45v105h-142q-4 -23 -21.5 -36t-39.5 -13q-27 0 -45.5 18.5t-18.5 44.5zM475 604q0 -35 35 -35q14 0 24.5 9.5t10.5 25.5q0 14 -10.5 24.5t-24.5 10.5q-16 0 -25.5 -10.5t-9.5 -24.5zM633 975q0 -35 35 -35q14 0 24 9t10 26 q0 14 -10 24.5t-24 10.5q-16 0 -25.5 -10.5t-9.5 -24.5zM696 395h62v62h-62v-62zM754 1083v119h118v-119h-45v-278h232q4 23 21 36t40 13q27 0 45.5 -18.5t18.5 -44.5q0 -27 -18.5 -45.5t-45.5 -18.5q-23 0 -40 13.5t-21 35.5h-141v-172q23 -4 36 -21.5t13 -39.5 q0 -27 -18.5 -45.5t-45.5 -18.5t-45 18.5t-18 45.5q0 23 13 40t36 21v172h-90v307h-45zM1085 791q0 -35 35 -35q14 0 24.5 9t10.5 26q0 14 -10 24t-25 10q-16 0 -25.5 -10t-9.5 -24z" />
<glyph unicode="g" d="M0 772l768 766l770 -766l-770 -772zM74 772l694 -698l696 698l-696 692zM334 877l420 71l415 -71l-84 -29v-227h-16v223l-315 -105zM508 694v94l242 -75l241 75v-94q-57 -57 -121 -82q-58 -22 -117 -22h-9q-64 2 -124.5 28.5t-111.5 75.5zM1051 516l18 82h16l15 -82h-49z " />
<glyph unicode="h" d="M0 772l768 766l770 -766l-770 -772zM74 772l694 -698l696 698l-696 692zM455 594v432h622v-432h-403l-131 -111v111h-88zM543 711h241v28h-241v-28zM543 793h432v28h-432v-28zM543 874h315v29h-315v-29z" />
<glyph unicode="i" d="M0 772l768 766l770 -766l-770 -772zM74 772l694 -698l696 698l-696 692zM219 754v30h131v-30h-131zM590 465l112 340l240 268l-113 -340zM664 592l139 156l-74 43zM717 1208v111h14h2h4v-2l2 -2l58 -66v6v5v59h24v-111h-14h-6l-4 4l-56 66v-6v-4v-60h-24zM754 221v131h30 v-131h-30zM1186 754v30h131v-30h-131z" />
<glyph unicode="j" d="M0 772l768 766l770 -766l-770 -772zM74 772l694 -698l696 698l-696 692zM432 594l45 39l2 -2q-2 8 -2 22v6l-41 35l27 72l51 -6q4 6 9 11t9 11l-6 58l68 32l39 -45l-2 -2q6 2 20 2h15h-2l41 45l69 -30l-8 -58l18 -18l56 6l30 -70l-45 -38l-2 4v-15v-10l45 -37l-26 -71 l-60 6v2q-4 -6 -12 -15l8 -59l-69 -33l-39 45q-4 0 -9.5 -1t-9.5 -1q-6 0 -10 2l2 -2l-39 -45l-69 29l6 57q-10 6 -17 17v-5l-59 -6zM588 653q0 -29 18 -47t45 -18q29 0 47.5 18.5t18.5 46.5q0 27 -18.5 46.5t-47.5 19.5q-27 0 -45 -19.5t-18 -46.5zM784 897l31 27v-2v16v4 l-29 25l19 49l35 -4q4 4 7 8t7 8l-4 41l47 23l27 -33h-2h14h12h-2l29 33l49 -23l-6 -39q8 -8 12 -14l39 4l23 -49l-33 -25v2v-10v-6l31 -27l-19 -49l-41 4q-4 -4 -5 -6t-5 -4l6 -41l-49 -23l-27 31h-14h-6h2l-27 -33l-49 21l4 39l-12 12v-2l-41 -6zM893 938 q0 -18 13.5 -31.5t31.5 -13.5t31.5 13.5t13.5 31.5t-13.5 31.5t-31.5 13.5t-31.5 -13.5t-13.5 -31.5z" />
<glyph unicode="k" d="M0 772l768 766l770 -766l-770 -772zM74 772l694 -698l696 698l-696 692zM645 944v51h248v-51h-21v-211h-104v-31h104v-40h-104v-29h104v-41h-104v-31h104v-143v-8q-8 -35 -36.5 -57.5t-67.5 -22.5q-37 0 -65.5 22.5t-36.5 57.5v8v526h-21zM739 1186q0 18 13.5 31.5 t29.5 13.5q18 0 31.5 -13.5t13.5 -31.5t-13.5 -30.5t-31.5 -12.5q-16 0 -29.5 12t-13.5 31zM754 848q0 -29 28 -29q12 0 21.5 8.5t9.5 20.5t-9.5 21.5t-21.5 9.5t-20 -9.5t-8 -21.5zM768 1055q0 23 20 22q23 0 23 -22q0 -20 -23 -21q-20 1 -20 21zM813 915q0 -14 14 -14 t15 14q-1 15 -15 15t-14 -15zM850 1125.5q8 9.5 20 9.5t21.5 -9.5t9.5 -21.5t-9.5 -20.5t-21.5 -8.5q-28 0 -28 27q0 14 8 23.5z" />
<glyph unicode="l" d="M0 145l1188 1188h-498v205h848v-848h-205v498l-1188 -1188z" />
<glyph unicode="m" d="M0 1393l145 145l1188 -1188v498h205v-848h-848v205h498z" />
<glyph unicode="n" d="M0 0v848h205v-498l1188 1188l145 -145l-1188 -1188h498v-205h-848z" />
<glyph unicode="o" d="M0 690v848h848v-205h-498l1188 -1188l-145 -145l-1188 1188v-498h-205z" />
<glyph unicode="p" d="M0 768l768 770l770 -770l-770 -768zM307 768l461 -461l463 461l-463 463z" />
<glyph unicode="&#x2000;" horiz-adv-x="853" />
<glyph unicode="&#x2001;" horiz-adv-x="1706" />
<glyph unicode="&#x2002;" horiz-adv-x="853" />
<glyph unicode="&#x2003;" horiz-adv-x="1706" />
<glyph unicode="&#x2004;" horiz-adv-x="568" />
<glyph unicode="&#x2005;" horiz-adv-x="426" />
<glyph unicode="&#x2006;" horiz-adv-x="284" />
<glyph unicode="&#x2007;" horiz-adv-x="284" />
<glyph unicode="&#x2008;" horiz-adv-x="213" />
<glyph unicode="&#x2009;" horiz-adv-x="341" />
<glyph unicode="&#x200a;" horiz-adv-x="94" />
<glyph unicode="&#x202f;" horiz-adv-x="341" />
<glyph unicode="&#x205f;" horiz-adv-x="426" />
<glyph unicode="&#xe000;" horiz-adv-x="1024" d="M0 0z" />
</font>
</defs>
</svg>
